<svg xmlns="http://www.w3.org/2000/svg">
    <symbol viewBox="0 0 24 24" id="share">
    <path d="M18 16.08c-.76 0-1.44.3-1.96.77L8.91 12.7c.05-.23.09-.46.09-.7s-.04-.47-.09-.7l7.05-4.11c.54.5 1.25.81 2.04.81 1.66 0 3-1.34 3-3s-1.34-3-3-3-3 1.34-3 3c0 .24.04.47.09.7L8.04 9.81C7.5 9.31 6.79 9 6 9c-1.66 0-3 1.34-3 3s1.34 3 3 3c.79 0 1.5-.31 2.04-.81l7.12 4.16c-.05.21-.08.43-.08.65 0 1.61 1.31 2.92 2.92 2.92s2.92-1.31 2.92-2.92-1.31-2.92-2.92-2.92z" />
    </symbol>
    <symbol viewBox="0 0 24 24" id="facebook">
    <path d="M12 2.04C6.5 2.04 2 6.53 2 12.06C2 17.06 5.66 21.21 10.44 21.96V14.96H7.9V12.06H10.44V9.85C10.44 7.34 11.93 5.96 14.22 5.96C15.31 5.96 16.45 6.15 16.45 6.15V8.62H15.19C13.95 8.62 13.56 9.39 13.56 10.18V12.06H16.34L15.89 14.96H13.56V21.96A10 10 0 0 0 22 12.06C22 6.53 17.5 2.04 12 2.04Z" />
    </symbol>
    <symbol viewBox="0 0 24 24" id="twitter">
    <path d="M22.46,6C21.69,6.35 20.86,6.58 20,6.69C20.88,6.16 21.56,5.32 21.88,4.31C21.05,4.81 20.13,5.16 19.16,5.36C18.37,4.5 17.26,4 16,4C13.65,4 11.73,5.92 11.73,8.29C11.73,8.63 11.77,8.96 11.84,9.27C8.28,9.09 5.11,7.38 3,4.79C2.63,5.42 2.42,6.16 2.42,6.94C2.42,8.43 3.17,9.75 4.33,10.5C3.62,10.5 2.96,10.3 2.38,10C2.38,10 2.38,10 2.38,10.03C2.38,12.11 3.86,13.85 5.82,14.24C5.46,14.34 5.08,14.39 4.69,14.39C4.42,14.39 4.15,14.36 3.89,14.31C4.43,16 6,17.26 7.89,17.29C6.43,18.45 4.58,19.13 2.56,19.13C2.22,19.13 1.88,19.11 1.54,19.07C3.44,20.29 5.7,21 8.12,21C16,21 20.33,14.46 20.33,8.79C20.33,8.6 20.33,8.42 20.32,8.23C21.16,7.63 21.88,6.87 22.46,6Z" />
    </symbol>
    <symbol viewBox="0 0 24 24" id="github">
    <path d="M12,2A10,10 0 0,0 2,12C2,16.42 4.87,20.17 8.84,21.5C9.34,21.58 9.5,21.27 9.5,21C9.5,20.77 9.5,20.14 9.5,19.31C6.73,19.91 6.14,17.97 6.14,17.97C5.68,16.81 5.03,16.5 5.03,16.5C4.12,15.88 5.1,15.9 5.1,15.9C6.1,15.97 6.63,16.93 6.63,16.93C7.5,18.45 8.97,18 9.54,17.76C9.63,17.11 9.89,16.67 10.17,16.42C7.95,16.17 5.62,15.31 5.62,11.5C5.62,10.39 6,9.5 6.65,8.79C6.55,8.54 6.2,7.5 6.75,6.15C6.75,6.15 7.59,5.88 9.5,7.17C10.29,6.95 11.15,6.84 12,6.84C12.85,6.84 13.71,6.95 14.5,7.17C16.41,5.88 17.25,6.15 17.25,6.15C17.8,7.5 17.45,8.54 17.35,8.79C18,9.5 18.38,10.39 18.38,11.5C18.38,15.32 16.04,16.16 13.81,16.41C14.17,16.72 14.5,17.33 14.5,18.26C14.5,19.6 14.5,20.68 14.5,21C14.5,21.27 14.66,21.59 15.17,21.5C19.14,20.16 22,16.42 22,12A10,10 0 0,0 12,2Z" />
    </symbol>
    <symbol viewBox="0 0 24 24" id="wordpress">
    <path d="M3.42,12C3.42,10.76 3.69,9.58 4.16,8.5L8.26,19.72C5.39,18.33 3.42,15.4 3.42,12M17.79,11.57C17.79,12.3 17.5,13.15 17.14,14.34L16.28,17.2L13.18,8L14.16,7.9C14.63,7.84 14.57,7.16 14.11,7.19C14.11,7.19 12.72,7.3 11.82,7.3L9.56,7.19C9.1,7.16 9.05,7.87 9.5,7.9L10.41,8L11.75,11.64L9.87,17.27L6.74,8L7.73,7.9C8.19,7.84 8.13,7.16 7.67,7.19C7.67,7.19 6.28,7.3 5.38,7.3L4.83,7.29C6.37,4.96 9,3.42 12,3.42C14.23,3.42 16.27,4.28 17.79,5.67H17.68C16.84,5.67 16.24,6.4 16.24,7.19C16.24,7.9 16.65,8.5 17.08,9.2C17.41,9.77 17.79,10.5 17.79,11.57M12.15,12.75L14.79,19.97L14.85,20.09C13.96,20.41 13,20.58 12,20.58C11.16,20.58 10.35,20.46 9.58,20.23L12.15,12.75M19.53,7.88C20.2,9.11 20.58,10.5 20.58,12C20.58,15.16 18.86,17.93 16.31,19.41L18.93,11.84C19.42,10.62 19.59,9.64 19.59,8.77L19.53,7.88M12,2A10,10 0 0,1 22,12A10,10 0 0,1 12,22A10,10 0 0,1 2,12A10,10 0 0,1 12,2M12,21.54C17.26,21.54 21.54,17.26 21.54,12C21.54,6.74 17.26,2.46 12,2.46C6.74,2.46 2.46,6.74 2.46,12C2.46,17.26 6.74,21.54 12,21.54Z" />
    </symbol>
    <symbol viewBox="0 0 24 24" id="linkedin">
    <path d="M19 3A2 2 0 0 1 21 5V19A2 2 0 0 1 19 21H5A2 2 0 0 1 3 19V5A2 2 0 0 1 5 3H19M18.5 18.5V13.2A3.26 3.26 0 0 0 15.24 9.94C14.39 9.94 13.4 10.46 12.92 11.24V10.13H10.13V18.5H12.92V13.57C12.92 12.8 13.54 12.17 14.31 12.17A1.4 1.4 0 0 1 15.71 13.57V18.5H18.5M6.88 8.56A1.68 1.68 0 0 0 8.56 6.88C8.56 5.95 7.81 5.19 6.88 5.19A1.69 1.69 0 0 0 5.19 6.88C5.19 7.81 5.95 8.56 6.88 8.56M8.27 18.5V10.13H5.5V18.5H8.27Z" />
    </symbol>
    <symbol viewBox="0 0 24 24" id="instagram">
    <path d="M7.8,2H16.2C19.4,2 22,4.6 22,7.8V16.2A5.8,5.8 0 0,1 16.2,22H7.8C4.6,22 2,19.4 2,16.2V7.8A5.8,5.8 0 0,1 7.8,2M7.6,4A3.6,3.6 0 0,0 4,7.6V16.4C4,18.39 5.61,20 7.6,20H16.4A3.6,3.6 0 0,0 20,16.4V7.6C20,5.61 18.39,4 16.4,4H7.6M17.25,5.5A1.25,1.25 0 0,1 18.5,6.75A1.25,1.25 0 0,1 17.25,8A1.25,1.25 0 0,1 16,6.75A1.25,1.25 0 0,1 17.25,5.5M12,7A5,5 0 0,1 17,12A5,5 0 0,1 12,17A5,5 0 0,1 7,12A5,5 0 0,1 12,7M12,9A3,3 0 0,0 9,12A3,3 0 0,0 12,15A3,3 0 0,0 15,12A3,3 0 0,0 12,9Z" />
    </symbol>
    <symbol viewBox="0 0 24 24" id="arrow_upward">
    <path d="M4 12l1.41 1.41L11 7.83V20h2V7.83l5.58 5.59L20 12l-8-8-8 8z" />
    </symbol>
    <symbol viewBox="0 0 24 24" id="home">
    <path d="M12 5.69l5 4.5V18h-2v-6H9v6H7v-7.81l5-4.5M12 3L2 12h3v8h6v-6h2v6h6v-8h3L12 3z" />
    </symbol>
    <symbol viewBox="0 0 24 24" id="bookmark">
    <path d="M17 3H7c-1.1 0-2 .9-2 2v16l7-3 7 3V5c0-1.1-.9-2-2-2zm0 15l-5-2.18L7 18V6c0-.55.45-1 1-1h8c.55 0 1 .45 1 1v12z" />
    </symbol>
    <symbol viewBox="0 0 24 24" id="notes">
    <path d="M14.17,5L19,9.83V19H5V5L14.17,5L14.17,5 M14.17,3H5C3.9,3,3,3.9,3,5v14c0,1.1,0.9,2,2,2h14c1.1,0,2-0.9,2-2V9.83 c0-0.53-0.21-1.04-0.59-1.41l-4.83-4.83C15.21,3.21,14.7,3,14.17,3L14.17,3z M7,15h10v2H7V15z M7,11h10v2H7V11z M7,7h7v2H7V7z" />
    </symbol>
    <symbol viewBox="0 0 24 24" id="launch">
    <path d="M18 19H6c-.55 0-1-.45-1-1V6c0-.55.45-1 1-1h5c.55 0 1-.45 1-1s-.45-1-1-1H5a2 2 0 00-2 2v14c0 1.1.9 2 2 2h14c1.1 0 2-.9 2-2v-6c0-.55-.45-1-1-1s-1 .45-1 1v5c0 .55-.45 1-1 1zM14 4c0 .55.45 1 1 1h2.59l-9.13 9.13a.996.996 0 101.41 1.41L19 6.41V9c0 .55.45 1 1 1s1-.45 1-1V3h-6c-.55 0-1 .45-1 1z" />
    </symbol>
<!--
<symbol viewBox="0 0 24 24" id="supercoupon">
  <path d="M11.97 13.92q0 1.3-.45 2.28-.45.98-1.24 1.62-.78.65-1.83.97-1.05.33-2.26.33-.47 0-1.03-.13-.55-.12-1.12-.3l-1.1-.4q-.53-.22-.94-.41l.42-3.92q.8.49 1.8.74.98.25 1.93.25l.44-.01q.25-.02.49-.09.23-.07.4-.21.15-.15.15-.41 0-.18-.11-.31t-.3-.21q-.18-.08-.4-.12-.23-.05-.45-.07l-.4-.02h-.31q-.82 0-1.5-.28-.66-.29-1.14-.8-.49-.5-.75-1.2Q2 10.52 2 9.7q0-1.13.45-2.01.46-.9 1.21-1.52.76-.62 1.74-.95.98-.34 2.02-.34.47 0 .97.04.5.03.98.12.49.08.96.21.46.14.88.34l-.36 3.86q-.65-.22-1.36-.37-.7-.14-1.38-.14h-.32q-.2 0-.4.03-.22.02-.44.07t-.39.13q-.17.08-.28.21-.1.14-.1.32.02.2.17.33.14.13.38.2.23.08.5.1l.57.04h.5l.4.01q.76.05 1.37.33.6.27 1.03.73.43.46.65 1.09.22.63.22 1.4zM22 5.61l-.53 4.01q-.28-.07-.55-.1-.28-.03-.55-.03-.71 0-1.35.18-.63.19-1.12.57-.5.38-.78.95-.3.57-.3 1.34 0 .5.16.86t.45.6q.28.24.67.35.39.12.85.12.36 0 .74-.08t.75-.2q.37-.12.72-.29.36-.16.65-.33l-.38 4.47q-.37.2-.8.34-.44.15-.9.26-.45.1-.9.16-.46.06-.88.06-1.21 0-2.26-.45-1.04-.45-1.81-1.22-.78-.78-1.22-1.84-.44-1.06-.44-2.3 0-1.62.47-3.06.46-1.44 1.37-2.53.9-1.08 2.24-1.71 1.33-.63 3.07-.63.66 0 1.35.1.7.11 1.28.4z" />
</symbol>
<symbol viewBox="0 0 24 24" id="arrow_back">
  <path d="M20 11H7.83l5.59-5.59L12 4l-8 8 8 8 1.41-1.41L7.83 13H20v-2z" />
</symbol>
<symbol viewBox="0 0 24 24" id="cake">
  <path d="M12 6a2 2 0 0 0 2-2c0-.38-.1-.73-.29-1.03L12 0l-1.71 2.97c-.19.3-.29.65-.29 1.03 0 1.1.9 2 2 2zm6 3h-5V7h-2v2H6c-1.66 0-3 1.34-3 3v9c0 .55.45 1 1 1h16c.55 0 1-.45 1-1v-9c0-1.66-1.34-3-3-3zm1 11H5v-3c.9-.01 1.76-.37 2.4-1.01l1.09-1.07 1.07 1.07c1.31 1.31 3.59 1.3 4.89 0l1.08-1.07 1.07 1.07c.64.64 1.5 1 2.4 1.01v3zm0-4.5c-.51-.01-.99-.2-1.35-.57l-2.13-2.13-2.14 2.13c-.74.74-2.03.74-2.77 0L8.48 12.8l-2.14 2.13c-.35.36-.83.56-1.34.57V12c0-.55.45-1 1-1h12c.55 0 1 .45 1 1v3.5z" />
</symbol>
<symbol viewBox="0 0 24 24" id="date_range">
  <path d="M7 11h2v2H7v-2zm14-5v14c0 1.1-.9 2-2 2H5a2 2 0 0 1-2-2l.01-14c0-1.1.88-2 1.99-2h1V2h2v2h8V2h2v2h1c1.1 0 2 .9 2 2zM5 8h14V6H5v2zm14 12V10H5v10h14zm-4-7h2v-2h-2v2zm-4 0h2v-2h-2v2z" />
</symbol>
<symbol viewBox="0 0 24 24" id="edit">
  <path d="M14.06 9.02l.92.92L5.92 19H5v-.92l9.06-9.06M17.66 3c-.25 0-.51.1-.7.29l-1.83 1.83 3.75 3.75 1.83-1.83c.39-.39.39-1.02 0-1.41l-2.34-2.34c-.2-.2-.45-.29-.71-.29zm-3.6 3.19L3 17.25V21h3.75L17.81 9.94l-3.75-3.75z" />
</symbol>
<symbol viewBox="0 0 24 24" id="email">
  <path d="M22 6c0-1.1-.9-2-2-2H4c-1.1 0-2 .9-2 2v12c0 1.1.9 2 2 2h16c1.1 0 2-.9 2-2V6zm-2 0l-8 5-8-5h16zm0 12H4V8l8 5 8-5v10z" />
</symbol>
<symbol viewBox="0 0 24 24" id="exit_to_app">
  <path d="M10.09 15.59L11.5 17l5-5-5-5-1.41 1.41L12.67 11H3v2h9.67l-2.58 2.59zM19 3H5a2 2 0 0 0-2 2v4h2V5h14v14H5v-4H3v4a2 2 0 0 0 2 2h14c1.1 0 2-.9 2-2V5c0-1.1-.9-2-2-2z" />
</symbol>
<symbol viewBox="0 0 24 24" id="link">
  <path d="M17 7h-4v2h4c1.65 0 3 1.35 3 3s-1.35 3-3 3h-4v2h4c2.76 0 5-2.24 5-5s-2.24-5-5-5zm-6 8H7c-1.65 0-3-1.35-3-3s1.35-3 3-3h4V7H7c-2.76 0-5 2.24-5 5s2.24 5 5 5h4v-2zm-3-4h8v2H8z" />
</symbol>
<symbol viewBox="0 0 24 24" id="local_activity">
  <path d="M22 10V6c0-1.1-.9-2-2-2H4c-1.1 0-1.99.9-1.99 2v4c1.1 0 1.99.9 1.99 2s-.89 2-2 2v4c0 1.1.9 2 2 2h16c1.1 0 2-.9 2-2v-4c-1.1 0-2-.9-2-2s.9-2 2-2zm-2-1.46c-1.19.69-2 1.99-2 3.46s.81 2.77 2 3.46V18H4v-2.54c1.19-.69 2-1.99 2-3.46 0-1.48-.8-2.77-1.99-3.46L4 6h16v2.54zM9.07 16L12 14.12 14.93 16l-.89-3.36 2.69-2.2-3.47-.21L12 7l-1.27 3.22-3.47.21 2.69 2.2z" />
</symbol>
<symbol viewBox="0 0 24 24" id="menu">
  <path d="M3 18h18v-2H3v2zm0-5h18v-2H3v2zm0-7v2h18V6H3z" />
</symbol>
<symbol viewBox="0 0 24 24" id="more_vert">
  <path d="M12 8c1.1 0 2-.9 2-2s-.9-2-2-2-2 .9-2 2 .9 2 2 2zm0 2c-1.1 0-2 .9-2 2s.9 2 2 2 2-.9 2-2-.9-2-2-2zm0 6c-1.1 0-2 .9-2 2s.9 2 2 2 2-.9 2-2-.9-2-2-2z" />
</symbol>
<symbol viewBox="0 0 24 24" id="notifications">
  <path d="M12 22c1.1 0 2-.9 2-2h-4c0 1.1.9 2 2 2zm6-6v-5c0-3.07-1.63-5.64-4.5-6.32V4c0-.83-.67-1.5-1.5-1.5s-1.5.67-1.5 1.5v.68C7.64 5.36 6 7.92 6 11v5l-2 2v1h16v-1l-2-2zm-2 1H8v-6c0-2.48 1.51-4.5 4-4.5s4 2.02 4 4.5v6z" />
</symbol>
<symbol viewBox="0 0 24 24" id="people">
  <path d="M9 13.75c-2.34 0-7 1.17-7 3.5V19h14v-1.75c0-2.33-4.66-3.5-7-3.5zM4.34 17c.84-.58 2.87-1.25 4.66-1.25s3.82.67 4.66 1.25H4.34zM9 12c1.93 0 3.5-1.57 3.5-3.5S10.93 5 9 5 5.5 6.57 5.5 8.5 7.07 12 9 12zm0-5c.83 0 1.5.67 1.5 1.5S9.83 10 9 10s-1.5-.67-1.5-1.5S8.17 7 9 7zm7.04 6.81c1.16.84 1.96 1.96 1.96 3.44V19h4v-1.75c0-2.02-3.5-3.17-5.96-3.44zM15 12c1.93 0 3.5-1.57 3.5-3.5S16.93 5 15 5c-.54 0-1.04.13-1.5.35.63.89 1 1.98 1 3.15s-.37 2.26-1 3.15c.46.22.96.35 1.5.35z" />
</symbol>
<symbol viewBox="0 0 24 24" id="person">
  <path d="M12 6c1.1 0 2 .9 2 2s-.9 2-2 2-2-.9-2-2 .9-2 2-2m0 10c2.7 0 5.8 1.29 6 2H6c.23-.72 3.31-2 6-2m0-12C9.79 4 8 5.79 8 8s1.79 4 4 4 4-1.79 4-4-1.79-4-4-4zm0 10c-2.67 0-8 1.34-8 4v2h16v-2c0-2.66-5.33-4-8-4z" />
</symbol>
<symbol viewBox="0 0 24 24" id="place">
  <path d="M12 2C8.13 2 5 5.13 5 9c0 5.25 7 13 7 13s7-7.75 7-13c0-3.87-3.13-7-7-7zM7 9c0-2.76 2.24-5 5-5s5 2.24 5 5c0 2.88-2.88 7.19-5 9.88C9.92 16.21 7 11.85 7 9zm2.5 0a2.5 2.5 0 0 1 5 0 2.5 2.5 0 0 1-5 0z" />
</symbol>
<symbol viewBox="0 0 24 24" id="search">
  <path d="M15.5 14h-.79l-.28-.27A6.471 6.471 0 0 0 16 9.5 6.5 6.5 0 1 0 9.5 16c1.61 0 3.09-.59 4.23-1.57l.27.28v.79l5 4.99L20.49 19l-4.99-5zm-6 0C7.01 14 5 11.99 5 9.5S7.01 5 9.5 5 14 7.01 14 9.5 11.99 14 9.5 14z" />
</symbol>
<symbol viewBox="0 0 24 24" id="settings">
  <path d="M19.43 12.98c.04-.32.07-.64.07-.98 0-.34-.03-.66-.07-.98l2.11-1.65c.19-.15.24-.42.12-.64l-2-3.46a.5.5 0 0 0-.61-.22l-2.49 1c-.52-.4-1.08-.73-1.69-.98l-.38-2.65A.488.488 0 0 0 14 2h-4c-.25 0-.46.18-.49.42l-.38 2.65c-.61.25-1.17.59-1.69.98l-2.49-1a.566.566 0 0 0-.18-.03c-.17 0-.34.09-.43.25l-2 3.46c-.13.22-.07.49.12.64l2.11 1.65c-.04.32-.07.65-.07.98 0 .33.03.66.07.98l-2.11 1.65c-.19.15-.24.42-.12.64l2 3.46a.5.5 0 0 0 .61.22l2.49-1c.52.4 1.08.73 1.69.98l.38 2.65c.03.24.24.42.49.42h4c.25 0 .46-.18.49-.42l.38-2.65c.61-.25 1.17-.59 1.69-.98l2.49 1c.06.02.12.03.18.03.17 0 .34-.09.43-.25l2-3.46c.12-.22.07-.49-.12-.64l-2.11-1.65zm-1.98-1.71c.04.31.05.52.05.73 0 .21-.02.43-.05.73l-.14 1.13.89.7 1.08.84-.7 1.21-1.27-.51-1.04-.42-.9.68c-.43.32-.84.56-1.25.73l-1.06.43-.16 1.13-.2 1.35h-1.4l-.19-1.35-.16-1.13-1.06-.43c-.43-.18-.83-.41-1.23-.71l-.91-.7-1.06.43-1.27.51-.7-1.21 1.08-.84.89-.7-.14-1.13c-.03-.31-.05-.54-.05-.74s.02-.43.05-.73l.14-1.13-.89-.7-1.08-.84.7-1.21 1.27.51 1.04.42.9-.68c.43-.32.84-.56 1.25-.73l1.06-.43.16-1.13.2-1.35h1.39l.19 1.35.16 1.13 1.06.43c.43.18.83.41 1.23.71l.91.7 1.06-.43 1.27-.51.7 1.21-1.07.85-.89.7.14 1.13zM12 8c-2.21 0-4 1.79-4 4s1.79 4 4 4 4-1.79 4-4-1.79-4-4-4zm0 6c-1.1 0-2-.9-2-2s.9-2 2-2 2 .9 2 2-.9 2-2 2z" />
</symbol>
<symbol viewBox="0 0 24 24" id="store">
  <path d="M18.36 9l.6 3H5.04l.6-3h12.72M20 4H4v2h16V4zm0 3H4l-1 5v2h1v6h10v-6h4v6h2v-6h1v-2l-1-5zM6 18v-4h6v4H6z" />
</symbol>
<symbol viewBox="0 0 24 24" id="visibility">
  <path d="M12 6a9.77 9.77 0 0 1 8.82 5.5C19.17 14.87 15.79 17 12 17s-7.17-2.13-8.82-5.5A9.77 9.77 0 0 1 12 6m0-2C7 4 2.73 7.11 1 11.5 2.73 15.89 7 19 12 19s9.27-3.11 11-7.5C21.27 7.11 17 4 12 4zm0 5a2.5 2.5 0 0 1 0 5 2.5 2.5 0 0 1 0-5m0-2c-2.48 0-4.5 2.02-4.5 4.5S9.52 16 12 16s4.5-2.02 4.5-4.5S14.48 7 12 7z" />
</symbol>
<symbol viewBox="0 0 24 24" id="visibility_off">
  <path d="M12 6a9.77 9.77 0 0 1 8.82 5.5 9.647 9.647 0 0 1-2.41 3.12l1.41 1.41c1.39-1.23 2.49-2.77 3.18-4.53C21.27 7.11 17 4 12 4c-1.27 0-2.49.2-3.64.57l1.65 1.65C10.66 6.09 11.32 6 12 6zm-1.07 1.14L13 9.21c.57.25 1.03.71 1.28 1.28l2.07 2.07c.08-.34.14-.7.14-1.07C16.5 9.01 14.48 7 12 7c-.37 0-.72.05-1.07.14zM2.01 3.87l2.68 2.68A11.738 11.738 0 0 0 1 11.5C2.73 15.89 7 19 12 19c1.52 0 2.98-.29 4.32-.82l3.42 3.42 1.41-1.41L3.42 2.45 2.01 3.87zm7.5 7.5l2.61 2.61c-.04.01-.08.02-.12.02a2.5 2.5 0 0 1-2.5-2.5c0-.05.01-.08.01-.13zm-3.4-3.4l1.75 1.75a4.6 4.6 0 0 0-.36 1.78 4.507 4.507 0 0 0 6.27 4.14l.98.98c-.88.24-1.8.38-2.75.38a9.77 9.77 0 0 1-8.82-5.5c.7-1.43 1.72-2.61 2.93-3.53z" />
</symbol>
<symbol viewBox="0 0 24 24" id="close">
  <path d="M19 6.41L17.59 5 12 10.59 6.41 5 5 6.41 10.59 12 5 17.59 6.41 19 12 13.41 17.59 19 19 17.59 13.41 12z"/>
</symbol>
<symbol viewBox="0 0 24 24" id="more_horiz">
  <path d="M6 10c-1.1 0-2 .9-2 2s.9 2 2 2 2-.9 2-2-.9-2-2-2zm12 0c-1.1 0-2 .9-2 2s.9 2 2 2 2-.9 2-2-.9-2-2-2zm-6 0c-1.1 0-2 .9-2 2s.9 2 2 2 2-.9 2-2-.9-2-2-2z"/>
</symbol>
<symbol viewBox="0 0 24 24" id="arrow_drop_down">
  <path d="M7 10l5 5 5-5z"/>
</symbol>
<symbol viewBox="0 0 24 24" id="arrow_drop_up">
  <path d="M7 14l5-5 5 5z"/>
</symbol>
<symbol viewBox="0 0 24 24" id="add">
  <path d="M19 13h-6v6h-2v-6H5v-2h6V5h2v6h6v2z"/>
</symbol>
<symbol viewBox="0 0 24 24" id="remove">
  <path d="M19 13H5v-2h14v2z"/>
</symbol>
<symbol viewBox="0 0 24 24" id="send">
  <path d="M2.01 21L23 12 2.01 3 2 10l15 2-15 2z"/>
</symbol>
<symbol viewBox="0 0 24 24" id="delete">
  <path d="M6 19c0 1.1.9 2 2 2h8c1.1 0 2-.9 2-2V7H6v12zM8 9h8v10H8V9zm7.5-5l-1-1h-5l-1 1H5v2h14V4z"/>
</symbol>
<symbol viewBox="0 0 24 24" id="star">
  <path d="M12 17.77l6.18 3.73-1.64-7.03L22 9.74l-7.19-.61L12 2.5 9.19 9.13 2 9.74l5.46 4.73-1.64 7.03L12 17.77z"/>
</symbol>
<symbol viewBox="0 0 24 24" id="star_border">
  <path d="M22 9.24l-7.19-.62L12 2 9.19 8.63 2 9.24l5.46 4.73L5.82 21 12 17.27 18.18 21l-1.63-7.03L22 9.24zM12 15.4l-3.76 2.27 1-4.28-3.32-2.88 4.38-.38L12 6.1l1.71 4.04 4.38.38-3.32 2.88 1 4.28L12 15.4z"/>
</symbol>
<symbol viewBox="0 0 24 24" id="bookmark_border">
  <path d="M17 3H7c-1.1 0-2 .9-2 2v16l7-3 7 3V5c0-1.1-.9-2-2-2zm0 15l-5-2.18L7 18V5h10v13z"/>
</symbol>
<symbol viewBox="0 0 24 24" id="bookmark">
  <path d="M17 3H7c-1.1 0-2 .9-2 2v16l7-3 7 3V5c0-1.1-.9-2-2-2z"/>
</symbol>
<symbol viewBox="0 0 24 24" id="pin">
  <path d="M17 4v7l2 3v2h-6v5l-1 1-1-1v-5H5v-2l2-3V4c0-1.1.9-2 2-2h6a2 2 0 0 1 2 2z"/>
</symbol>
<symbol viewBox="0 0 24 24" id="pin_outline">
  <path d="M17 4v7l2 3v2h-6v5l-1 1-1-1v-5H5v-2l2-3V4c0-1.1.9-2 2-2h6a2 2 0 0 1 2 2zM9 4v7.75L7.5 14h9L15 11.75V4H9z"/>
</symbol>
<symbol viewBox="0 0 24 24" id="error">
  <path d="M11 15h2v2h-2v-2zm0-8h2v6h-2V7zm.99-5C6.47 2 2 6.48 2 12s4.47 10 9.99 10C17.52 22 22 17.52 22 12S17.52 2 11.99 2zM12 20c-4.42 0-8-3.58-8-8s3.58-8 8-8 8 3.58 8 8-3.58 8-8 8z"/>
</symbol>
<symbol viewBox="0 0 24 24" id="warning">
  <path d="M12 5.99L19.53 19H4.47L12 5.99M12 2L1 21h22L12 2zm1 14h-2v2h2v-2zm0-6h-2v4h2v-4z"/>
</symbol>
<symbol viewBox="0 0 24 24" id="success">
  <path d="M12 2C6.48 2 2 6.48 2 12s4.48 10 10 10 10-4.48 10-10S17.52 2 12 2zm0 18c-4.41 0-8-3.59-8-8s3.59-8 8-8 8 3.59 8 8-3.59 8-8 8zm4.59-12.42L10 14.17l-2.59-2.58L6 13l4 4 8-8z"/>
</symbol>
<symbol viewBox="0 0 24 24" id="info">
  <path d="M11 7h2v2h-2zm0 4h2v6h-2zm1-9C6.48 2 2 6.48 2 12s4.48 10 10 10 10-4.48 10-10S17.52 2 12 2zm0 18c-4.41 0-8-3.59-8-8s3.59-8 8-8 8 3.59 8 8-3.59 8-8 8z"/>
</symbol>
<symbol viewBox="0 0 24 24" id="help">
  <path d="M11 18h2v-2h-2v2zm1-16C6.48 2 2 6.48 2 12s4.48 10 10 10 10-4.48 10-10S17.52 2 12 2zm0 18c-4.41 0-8-3.59-8-8s3.59-8 8-8 8 3.59 8 8-3.59 8-8 8zm0-14c-2.21 0-4 1.79-4 4h2c0-1.1.9-2 2-2s2 .9 2 2c0 2-3 1.75-3 5h2c0-2.25 3-2.5 3-5 0-2.21-1.79-4-4-4z"/>
</symbol>
<symbol viewBox="0 0 24 24" id="shopping_trolley">
  <path d="M15.55 13c.75 0 1.41-.41 1.75-1.03l3.58-6.49c.37-.66-.11-1.48-.87-1.48H5.21l-.94-2H1v2h2l3.6 7.59-1.35 2.44C4.52 15.37 5.48 17 7 17h12v-2H7l1.1-2h7.45zM6.16 6h12.15l-2.76 5H8.53L6.16 6zM7 18c-1.1 0-1.99.9-1.99 2S5.9 22 7 22s2-.9 2-2-.9-2-2-2zm10 0c-1.1 0-1.99.9-1.99 2s.89 2 1.99 2 2-.9 2-2-.9-2-2-2z"/>
</symbol>
<symbol viewBox="0 0 24 24" id="camera">
  <circle cx="12" cy="12" r="3.2"/>
<path d="M9 2L7.17 4H4c-1.1 0-2 .9-2 2v12c0 1.1.9 2 2 2h16c1.1 0 2-.9 2-2V6c0-1.1-.9-2-2-2h-3.17L15 2H9zm3 15c-2.76 0-5-2.24-5-5s2.24-5 5-5 5 2.24 5 5-2.24 5-5 5z"/>
</symbol>
-->
</svg>
