<svg xmlns="http://www.w3.org/2000/svg" viewBox="0 0 4000 4000"><path fill="#FFF" d="m1939 275 21 1c2 9 3 19 2 30l-1-1c-3-2-7-2-10-2l-6 5c-1 3 0 7 4 9l7 1 5-1c5 4 4 12 3 18l-1 4c-8-3-16-4-24-4l-1 4c3 1 3 7 0 9l-6 1-6-2-2-4q3-2 1-7-3-5-12-2-6 4-16 3-7-7-7-19l5-1 5 1 7-4 1-6c-1-8-7-12-14-11l-4 2c-2-1-2-3-2-4l-2-16 24-2 5 11c2 3 7 3 12 3l6-3c3-4 4-8 4-12l2-1Zm480 5 16 9v2l-3 2-1 4 5 5 5 1 4-7 10 12c-6 2-7 9-7 15l6 3 1 7c-1 2-3 2-5 2l-3-1-1-4c-2 0-5 0-5 3l-5 11-14-5c4-2 5-7 5-11l-3-5-6-1-4 3-2 6-18-13c5-3 8-8 9-13l-10-5-1-5 4-5 3-1 7 5 3 3 3-2 7-15Zm-203 70q12-2 15 7 3 5 2 14-3 3-2 11 2 3 8 2 16-7 36-10 7 16 8 40-1 2-6 1l-3-1c-10 1-14 13-12 21 1 3 3 7 6 8 5 1 12 0 16-4v18q0 10-3 17-22 0-34 11 4 5 3 15l-5 8-9 3-7-4-1-9q3-3 2-9-1-3-6-2-13 6-30 8-8-13-12-30 1-4 8-3 2 3 9 1 5-1 8-5 4-4 3-11l-5-12c-4-4-10-4-14-3l-10 5c-6-16-7-33-6-49l4-2c1 2 4 1 6 1l16 1q6 0 9-4-6-9-5-25l6-7 5-2Z"/><path fill="#12BE88" d="m1514 382 91 66v1l-18 16q-15 12-17 38 3 16 15 24 11 10 34 9 14-3 22-12 12-15 14-39v-2l1-4 91 73c-11 29-26 56-43 82l-12-13c-15-15-45-9-55 9-8 15 1 35 14 45l21 13c-13 21-27 41-43 59l-13-11-9-11c-4-9-15-11-23-10l-9 6-4 8a116 116 0 0 1-26 34c-16 10-39 1-46-16-6-16 0-37 14-48h1c8-4 9-13 8-20l-3-6q-45-30-96-53 0-11 6-15l16-46q3-18 12-32 7 14 19 23 8 9 26 10l2-1h2c16-5 27-18 30-35l-1-3q3-2 1-7-3-22-16-33-16-11-37-15 7-50 31-84Z"/><path fill="#FF72B8" d="M1798 397c3 5 13 2 17 0 3-2 8-1 12 0l11 3-3 12c2 9 13 13 22 12l6-4c2-4 2-8 1-11l-1-4h2q17 3 30 11-2 13-1 31l4 5 9-1c4 0 9 2 11 7l2 9-3 6-9 1-10-6-4 3v35c-11 2-22 3-33 2l-1-3c4-4 5-11 4-16l-6-9c-3-3-6-3-10-3-11 0-18 9-16 20l2 7h-3q-25-2-46-8 8-12 7-32-2-5-9-3-4 4-14 1l-8-5-1-12 4-7c3-4 9-4 14-3l16 6q6-5 4-18-2-2-1-7l1-19Z"/><path fill="#FFF" d="M1979 478q31 5 57 16-8 7-9 21 2 11 10 17 3 5 13 4 12-3 18-12l6-17q24 7 43 19-10 11-15 28 1 6 6 8 18 3 30 13l6 12c0 7-2 15-9 19l-9 4h-2c-3 1-7 2-8-1h-2c-6-6-15-8-22-9l-6 4q-13 31-21 68-20-6-43-7h-2q-11 1-17-2 11-9 15-24v-2q-1-14-10-19-7-6-21-4-12 3-19 12-8 11-8 29-13 1-20-2h-2c-12-1-23-3-34-7l30-66c8 11 24 17 38 15 12-2 16-18 16-27l-1-3c-2-19-21-22-36-21l-3 1h-2l33-67Zm644 31q15-5 20 2 4 20 4 46h-2c-7-5-19-6-24 2l-2 8c2 8 9 11 16 10 4 0 7-4 10 0 3 3 5 7 5 11v9l-2 13c-13-4-26-6-39-6l-1 5c4 2 4 6 4 11l-3 4-8 2c-5 0-10-2-13-6l-1-3c2-3 2-7 2-10l-2-4q-6-2-14-1-12 6-30 5-8-13-10-30l6-1c2 3 6 2 10 1 8-2 13-8 12-17l-5-12c-5-5-12-5-17-4l-7 3c-3-2-3-6-2-9l-4-22c2-4 8-3 12-2l26-1q2 13 11 19 4 4 14 3 7-2 12-6 5-7 6-19 12 4 16-1Z"/><path fill="#12BE88" d="M2406 600c15 1 27 15 23 32-1 3-3 5-3 9l-1 7 3 4q31 8 73 6 2 32 7 62h-2c-4-4-9-6-14-7-6-1-13-2-19 1-19 9-13 37 2 46 5 3 11 5 17 5l17-3c9 17 8 39 6 58h-2l-69-12c4-6 6-12 7-18 1-7 2-16-2-23-8-15-32-14-42-2-6 6-6 15-5 24l4 14h-4l-46-10c-8-1-16-2-23-6l-1-22c3-2 2-6 1-8l1-18q-1-8 2-11 6 6 21 4 8-3 13-9 4-5 4-13-2-10-8-15-10-8-28-7 2-25 9-46 11 8 33 7 8-4 5-19 0-18 10-26l11-4Z"/><path fill="#FFF" d="m1399 610 1 1c0 8 0 16 3 24l-1 2c3 2 2 6 2 9-1 6 0 12 2 18l-1 2 1 4c-18 2-32 14-32 34l1 3q1 16 13 22 8 7 25 5 1-2 2 1v2q4 24 5 53-10 6-25 7h-2c-15 3-30 4-45 4l-1-2c8-11 6-30-6-37-11-7-24 2-28 13v8l3 9c0 2 1 9-1 10v3l16 33-13 11q-7 7-7 23 3 13 12 21 7 8 24 7 9-1 15-6 16 22 26 51-26 24-64 37 1-22-10-31-5-5-16-4-8 2-12 9-4 5-3 17 10 6 11 22l-5 7q-16 12-40 16-4-34-17-59l-2-1-8 7-4 6c-4 3-9 3-12 2l-7-5q-6-7-5-21 1-6 6-9 14 0 19-8-3-25-17-37l-12-15c-5-2-6-8-5-12l37-32c1 6 3 13 6 18s7 11 13 14c14 6 32-5 36-19 2-7 1-13-2-20-2-5-6-10-10-14h-2l2-3h1l-2-1c4-17 6-33 7-50 0-4 2-9-2-12l-4-1c-4 7-13 9-20 8l-6-3c-4-6-4-12-4-18l1-3c1-5 3-9 7-12l5-2 2 1h2l11 1 6-4 1-12c-2-19-6-38-13-55l3-4 45-16v5q-5 3-1 16 2 11 9 17 5 5 16 5 15-2 23-12 5-7 5-18-1-12-6-18 21-9 48-12Zm300 47 91 66-21 20q-14 11-14 37 4 15 16 23 11 9 33 8 16-3 23-14 12-16 13-43l92 73c-12 28-26 55-42 81l-5-3-6-8c-15-16-47-11-57 9-6 14 1 32 12 42l23 15q-18 33-43 59-14-25-44-32-8 2-11 8-8 23-24 38-8 7-22 7-12-2-20-8l-5 12 4 4c10 1 14 9 12 19l-4 6c-5 1-11 1-13-3l-5-9c-3 0-5 0-6 3l-14 29q-21-2-31-13 0-6 5-7l4-3c3-4 3-8 3-12l-5-9c-7-7-20-7-25 3l-4 12-40-29q17-8 20-29-14-3-21-11-3-3-2-9 2-7 7-11 3-3 11-2 8 3 12 10l4 5 5 1q15-13 20-37 20 7 35 21l-1 3-6 5-1 9c3 8 10 14 20 13l4-3 5-12 4 4q4-14 14-21 7-6 9-17l-3-8q-46-31-98-54 20-43 34-92l3 3q5 10 14 17 8 13 31 12 15-5 24-16 9-12 7-33-4-20-16-30-16-11-37-15 9-49 32-84Zm449 19 40 71q10 10 15 27-29 6-47 24-8 7-9 22 3 22 19 32 8 10 28 9 20-5 30-19l13-19 53 104q-33 31-72 56-5-18-17-29-10-9-29-7-14 3-20 13-7 9-5 28 6 19 18 32-29 20-63 35-6-29-24-46-4-2-11-1-13 5-20 14-11 13-33 14-17-2-24-13-7-9-5-26 4-16 16-25 19-5 30-17 3-3 2-9-29-50-66-92l32-31 35-38 2 1q2 27 18 41 6 7 19 8 22-2 32-15 13-13 11-39-4-19-16-28l-14-11-1-3c5-9 11-18 19-24l44-39Z"/><path fill="#FF72B8" d="M1393 813c28 12 56 26 81 45v1l-12 10c-9 7-11 21-9 32 1 8 7 17 15 22l14 5c11-1 23-5 31-14l14-22c21 13 40 28 58 45l-7 8-17 15c-7 4-9 13-9 22l9 10 7 5 5 5 16 7c-2 12-8 23-20 29l24 19-4 5q-9 7-25 5-20-3-29-16-4-12-21-10l-7 5q-31 43-55 93-43-21-91-36l2-3q13-6 21-16 8-9 11-22-2-23-17-32-12-9-34-7-20 4-30 18-5 19-14 33-23 1-33-9l2-3c-14-10-29-17-44-23l-1 5-7-3 29-38 3 15q26-4 42-18 4-3 3-10-12-7-11-27l5-9 20 21q10 9 26 13 1-2 7-1h2q16-3 23-15 5-7 7-16 9-4 15-11-10-29-26-51-8 7-24 6-8-1-13-5l68-82Zm1291 67 22 1c3 9 4 19 3 29h-2c-3-3-7-3-10-2l-5 4-1 4 5 6 5 1q1-2 7-1 4 3 3 12 0 6-2 10-10-4-24-4l-1 3 3 7c-2 4-7 4-11 3l-4-2-1-5 1-5c-3-5-10-3-14-2l-14 3q-8-6-7-19 12 1 16-4l1-9-3-6c-3-3-8-3-11-2l-4 1-4-19q11-3 25-2 0 8 5 11 3 3 10 3 5-1 8-4-1-9 4-12Z"/><path fill="#FFF" d="m2402 959 8 8 28 28 6 6 2 3c-11 1-25 5-31 15-8 13 5 32 19 36 9 2 18 1 25-4l5-8c2-5 8-6 13-6l15 15 21 26-62 34c-2-7-4-14-8-20-3-6-8-14-14-16-7-2-13-1-19 2l-8 5c-10 12-11 28 3 39l13 10-67 32q-20-21-35-47 14-3 20-12 4-5 4-14-1-11-8-16t-19-3l-19 11q-14-18-22-41 19-4 30-15l1-5q-4-11-11-18-8-6-6-21l6-10q5-7 20-5 9 3 14 10 3 14 13 21l4 1c21-11 41-25 59-41Zm-542 34c21 12 41 28 57 47v1c-5 1-10 3-14 6s-9 7-11 12c-3 8 0 17 7 22 9 7 23 4 29-5l7-11c1-3 6-2 8-1 9 3 17 8 22 16l13 17q-27 14-49 35-1 4 2 6 12 1 18 9l2 9c-4 10-13 17-24 18l-9-5c-1-5-4-8-7-11l-8-1-14 13-26 39-3 2-3-1c-15-6-28-13-41-22l2-3 6-4c5-3 11-10 13-16 3-10 0-20-8-26l-15-7h-2q-19-1-25 12-6 4-6 13-10 0-12-7l-30-21 41-45q8 10 27 10 16-2 23-13 7-8 6-23-4-15-14-23 17-23 38-42Zm-691 24q20 0 32 10-10 5-9 23l4 5c6 7 20 7 25-1l4-15q24 9 44 23-13 10-17 30 16 1 25 11 3 2 2 9-2 6-6 10-4 3-11 2-12-5-19-13l-5 4-11 36-7-2-1 2q2 30 19 45 3 3 11 1 12-5 22-13 10-9 31-8 12 3 19 12 7 7 7 23-3 16-13 25t-26 12q-10 1-15 9l-2 7q23 53 55 99-41 27-76 60-1-32-17-48-7-6-19-7-25 2-35 18-12 11-10 37 7 25 25 40l-8 10c-20 16-40 31-61 44l-12-25-32-78q37-3 55-24 8-8 6-25-4-20-18-29-9-9-28-8-23 7-35 24l-6 8-41-109q36-28 79-48 2 25 19 36 8 6 23 6 14-2 21-11 8-10 7-29-4-19-14-30 29-16 63-27-15-3-25-11 5-5 6-14-2-8-7-12t-14-3l-3 2q-5 4-4 14-16-9-28-21 8-14 11-32l-1-3c-12-1-20-8-18-19l4-6 5-2c3 1 7 2 9 6l4 4 4 1c5-6 4-15 7-22 1-5 3-9 6-13Z"/><path fill="#FF72B8" d="M2105 1113q5 10 6 24 2 16 12 25 4 4 13 2 17-15 44-21h2l6 1c12 2 21 9 25 21 6 16-4 33-17 43-11 8-27 4-36 17l-1 9q23 51 53 97-28 18-52 41l-17 14c-2 2-5 4-8 4l-1-2c1-18-3-38-19-49l-8-3c-27-5-48 16-52 42v2q-1 21 10 31 13 4 14 21-31 30-69 52l-32-77q-8-11-11-27 35-3 54-22 7-8 8-21l-1-3c-2-18-14-34-31-39-17-4-36 5-47 18l-5 8-3 5q-25-51-41-109 37-28 81-48v6c2 16 12 33 30 35l10 1 5-1c20-4 25-24 23-42l-13-27c22-12 44-21 68-28Z"/><path fill="#FFF" d="m2540 1227 2 2 10 11q4 1 3 6-6 3-4 15l6 6 7 2q6-1 9-5 9 8 15 19l-7 8-14 12c-1-4-3-8-6-11l-6-1-5 4-1 6 3 4 4 4c1 5-1 10-7 11l-8 4-12-21-4 3c0 1 0 4-2 4l-3 1-7-5-1-6 3-4c3 0 6-2 4-6-2-5-5-8-9-11l-9-6c1-8 4-15 12-19l5 8 8 3 7-5c2-3 2-7 1-10l-5-7-3-1 14-15Z"/><path fill="#12BE88" d="M2322 1244h17q6-1 7 2 5 19 4 46h-2c-4-4-10-4-15-4l-8 5c-3 2-3 7-2 11l4 5q3 5 14 3 1-2 7-1 7 6 5 23l-2 11c-13-4-25-6-37-7l-3 2q5 5 4 16-4 6-16 4l-7-4-1-8c2-2 2-5 1-7l-1-3q-6-3-16-1-11 6-28 5-10-11-11-30l7-1c1 3 6 2 9 1l9-4c5-6 4-15 1-21-5-8-13-9-21-8l-6 3q-1-18-6-31 3-4 12-2l27-1q1 12 9 18 5 4 14 4 9-1 14-7 5-7 5-18 9 3 12-1Zm-438 33c14 21 24 44 31 68h-11q-15 0-21 9-5 4-4 15 2 7 8 11 5 5 18 4 5-10 22-9l4 4q13 16 16 43-9-1-15 2l-2-1-27 6c-6 0-12 0-16 4s1 10 5 12l4 4 3 5v2l-1 3c2 1 0 2-1 3l-4 5c-7 5-15 5-22 4l-8-5q0-15-7-21-22 1-33 12-12 14-33 17-17-18-30-39l4-2 2 1c5-1 11-3 16-6 5-2 11-7 13-12 5-13-5-30-17-35-13-5-29 1-37 11l-24-43q25-14 56-23 3 10 11 15 6 9 24 7 13-2 20-10t8-22l-1-3-4-13c17-10 34-17 53-23Z"/><path fill="#FFF" d="M2211 1424q15-2 24 2-5 25-4 58l3 3q9 1 12-5 3-4 13-3l5 5c4 5 4 13 3 20l-4 9c-3 3-10 5-13 2-3-2-6-1-9 0l-6 5c-4 5-1 14 0 20 4 16 8 32 14 48l-1 2-32 13q-4 4-12 4 2-26-11-37-6-4-15-4-16 3-24 14-5 6-4 20 2 10 7 17-25 4-47 12-5-4-3-14l-2-10-5-34 9-3c16-6 25-23 20-40-2-7-7-14-14-19-5-3-12-4-18-4-2 0-8 3-9 1l-8-55c23-10 48-14 73-15v2c-6 8-6 23 1 32 9 11 27 8 33-5 2-6 2-11-1-16-2-4-2-9-2-14l3-4c7-5 15-7 24-7Zm-371 40q11-1 15 6 4 2 3 10-2 8-7 13-6 1-5 10 16 10 40 13-3 23-13 38l-12-6c-10 2-17 10-17 20l5 6 1 1v1l-18 8 11 19q-2 4-3 1-14-7-31-9l-4 3c0 10-6 18-17 17l-8-5q-2-10 4-12 6-1 5-9-20-4-35-11l5-23q-1-8 4-10 5 10 22 8l8-6c3-4 3-10 2-14l-4-8q-7-5-18-4 9-25 22-45l5 2 10 8q4 6 16 5 1-16 10-25l4-2Zm-783 43q30 9 54 25-5 6-4 19 2 16 14 23 7 8 25 6 10-3 16-9l9-14c17 6 35 14 51 24l-1 2v2c-6 22-14 44-26 64l-6-4-6-8q-6-7-20-5-7 2-11 8-4 4-3 15 2 9 10 13 13 1 20 9-2 7 1 10-7 21-20 37-8 1-8-6l-18-14-1 4 2 9-4 1-11-3c-6 1-10 4-13 9l-2 8c1 9 8 17 18 16l11-4v24q-3 2-1 9 1 10-1 18-12-6-29-5l-6 4c4 7 7 23-2 29l-10 2c-10-1-15-11-12-20l3-8v-6c-7-6-17-1-24 1l-19 2v-1c-4-13-5-26-4-39l6-1 5 2c10-3 13-13 12-22l-4-7-9-1-7 3v-1q1-20 8-33 25 4 35-7-3-5-2-13l2-4q-13-11-32-15-19 0-29-9 1-29 10-49 10 13 34 13 7-2 11-7 8-8 6-25-2-11-9-16-9-7-22-8-2 2-3 0l16-47Z"/><path fill="#FFF" d="M2000 1515c14 21 24 44 31 68h-5l-3-1-5 1h-2c-14 1-24 10-22 24l7 10c4 4 10 5 16 5l3-1c6-1 12-4 17-9l3 1 7 6c8 12 12 27 13 42l-1-1-4 1h-2c-3-1-6-1-7 1h-2l-10 2h-2l-21 4c-3 0-11 1-12 5s3 9 7 10l3 3c3 2 3 7 3 12l-5 6-12 5-3-1-3 1c-5 0-10-2-13-6l-2-5v-2q2-13-6-15-23 4-38 16l-16 10q-4 4-11 3-17-18-28-40 22-2 32-15 4-5 3-13-2-15-12-22-7-7-22-5-12 4-20 12l-24-43 18-8 38-15c3 10 12 20 23 22l8 1 9-1c17-5 24-19 23-35l-4-11c16-10 34-17 53-22Z"/><path fill="#12BE88" d="M1813 1613c7-1 15 1 18 8l26 18q-12 5-20 16-6 5-5 18 3 8 9 13 7 9 26 8 10-3 16-11 8 15 20 27 6 1 9-2l13-8 3 3-13 14-30 27c-6-7-14-11-22-12h-2c-10 0-20 3-26 12l-8 16v2c-1 2-1 5 1 7v2c1 7 5 14 12 19l-16 17-25 22c-18-11-33-25-46-41l-8-9 15-7c4-2 8-6 10-10 4-6 4-14 0-20-6-8-18-10-27-6l-7 7-8 10c-10-1-19-4-24-12l-16-23c19-9 36-20 52-33l-2-6c-12-2-20-8-18-19l8-10c6-6 20-9 25 0l6 10c2 3 6 2 10 2l19-17c6-12 15-23 25-32Z"/><path fill="#FFF" d="m1591 1735 3 1q16 3 24 15 9 9 9 29-2 15 5 22 3 5 14 3 53-10 100-26 8 8 10 23l30 67h-6c-6-3-12-4-18-4l-2 1h-2c-18 0-32 8-35 26-1 5-2 11-1 16l4 10c7 16 22 26 40 28h2l5-1h2q20-3 34-13 24 34 34 83-21 0-38 5h-2l-4 1h-2c-8 0-16 0-23 3h-2l-4 1h-2c-5 0-10 0-13 2h-2l-18 2-2-2q4-12 2-29-2-22-13-33-9-9-27-8l-3 1c-16 3-31 13-36 29-1 7-1 12 1 19 3 12 9 24 18 34l-3 1c-5-1-10-2-13 1h-2c-12 0-23 0-33 3h-2c-2 0-5-1-6 1l-3-1-5 1c-5-1-13-3-16 2l-2-1-3 1c-2 0-5-1-6 1l-2-1c-2 2-5 1-6 1l-13 1-2-4-1 8q2 6 7 9 5 4 15 4 1-2 7-1 12 4 16-1 18 2 27 13 9 8 7 27-3 13-13 20-11 10-32 8l-3-1-13-4h-2c-2 0-5-1-6 1l-2-1-8 6c-2 3-3 7-3 11v2q2 25-2 44 3 2 1 9v15c-1 2-1 5 1 7l-1 3 1 5-1 2c5 3 2 11 1 16l-2 1h-2l-2-1c-8 0-16 1-22 4h-2c-14 1-27 3-39 7h-2l-20 4h-6c5-7 8-15 10-23 2-10 3-22-2-31l-6-8c-14-14-39-12-55 0-15 11-20 28-18 46l5 18-1 2c2 1 0 2-1 3l-16 5h-2l-4 1h-2l-11 2h-2c-3-1-6-1-7 1h-8v-3l-3 2v1c-4-1-10-1-12 2l-3-1c-2 3-4-1-5-3-2-4-3-9-2-13l5-8 12-4c-4-15-10-28-19-39l2-9 2-20q-2-11 3-14 14 7 32 10h2c4 1 11 3 15-1h2q13-2 20-11 9-11 7-32-3-18-14-27-9-7-22-8-23 1-38 10-3-1-1-2l4-25c0-5 0-10 3-13l-1-2 3-11v-2c0-4 0-7 2-9l-1-2c4-10 6-20 6-30 1-6-2-15 4-19l2-1h2q27-3 59-2 3 4 14 1l4-1 8 2c-4 1-4 5-3 8l1 5c1 4-2 5-2 9 0 10 6 22 14 28l14 8h2c3 0 6 0 9 2l22 6v-1c-3-4-3-9-2-13l3-4c6-6 19-1 24 6l1 9q-3 1-2 7 10 5 29 1 3-4 13-1-3-19-2-40 1-4 8-3 6 5 18 5 6-2 9-6t2-12l-5-8q-5-4-16-2-3 3-9 2-6-3-3-14l6-20c-2-3-6-3-8-2l-18-3 1-2 7 2 2-1c1 3 5 1 8 1 8-2 16-4 23-10 8-9 13-21 10-33-4-17-22-24-37-25l-3 1q-14 1-23 5-5-7-5-19v-2c-4-17-6-35-5-52l6-1 4 1 2-1c1 2 4 2 7 1l14 1c7 0 15-2 20-8 5-4 4-12 3-18l-8-25v-13c2-18 15-28 33-29Zm-457 43 22 27q-12 9-14 28 2 17 14 25 7 7 23 6 12-3 20-11 20 20 36 45l-15 17-38 32c-1-6-3-11-6-16-2-4-6-9-11-12l-10-1c-18 0-23 26-9 36l9 9 1 5q-4 9-11 15-13 10-27 17-13-30-30-54l-3 1-4 3-6 13c-6 8-18 1-22-5l-6-13 1-5c0-4 1-7 5-8s9-3 12-6l3-6c-6-12-15-23-25-31l-21-16c-2-2-2-5-2-7l29-39c3 8 8 15 15 21l11 6h2c15-1 25-12 28-27l-1-3v-2q-6-12-7-28 4-6 15-4l20 5 2-17Z"/><path fill="#12BE88" d="m1472 1957 10 1-4 8c-2 14 7 23 21 21l9-6c3-3 3-8 3-11l-3-9 10-1c2 3 7 2 10 1l5 1 14 2q8-2 11 3-7 11-6 32 1 3 7 2 5-4 17-2l7 6c6 6 1 17-5 21-3 1-8 2-10 0l-9-4c-2 0-8-1-9 1-5 4-4 10-2 16 0 3 2 4 1 9l1 17c-13 2-26 2-38 1l-4-1c2-5 2-10 2-14l-5-7c-5-4-11-4-16-3l-6 4c-2 3-2 7-1 11l2 5h-2q-18-3-31-10 4-24-3-36l-4-1c-3 3-8 2-10 1l-8-5q-3-4-2-12 2-7 13-5 2 6 11 5 3-3 2-10-3-12-2-27l18-3c1 0 4 1 6-1Z"/><path fill="#FF72B8" d="M1120 2044q9 0 13 6 6 9 7 23 10 0 15-5 10-9 24-14 14 13 17 38-10 0-14 6-3 4-2 13 2 7 8 11 12 1 16-7 6 14 6 34-17 6-30 17-1 6 3 7 4 3 3 12-2 7-7 10l-7 1-6-4q2-12-2-17-10-1-12 5l-21 12q-11-13-19-28 15-1 21-10 3-4 2-10-2-9-8-13-4-3-10-2l-10 6-2 3h-3q-10-22-16-47 21 0 32-10 1-10-6-12-6-4-4-15l7-8 5-2Zm-153 378q12-2 16 5 3 3 3 10-4 12-12 22 5 6 17 7 15-1 24 6-3 22-12 38-5-6-15-5l-11 9c-3 3-3 7-3 12l5 5q4 3 12 3-7 15-18 27-15-7-34-8-3 10-8 17-4 5-13 3l-6-3-2-6q2-7 7-10 4-1 3-6-4-4-11-4-14-2-24-7l7-33c3 0 7 0 8 3 3 5 8 6 14 5l9-7c3-4 3-10 2-14l-5-8q-6-5-17-3 7-26 21-46 8 14 31 15 0-18 10-26l2-1Z"/><path fill="#FFF" d="m852 2498 3 1c1 17 6 34 18 47l6 3q13-1 21-8 13 0 20 7 1 5-3 6-6 3-7 11l4 6c3 3 8 3 12 2l6-4q0-11 7-16 15 1 26 7-3 21-17 30-20 5-35 16-4 3-3 11 25 51 56 96-28 19-53 43-9 12-23 18-1-34-19-49-9-7-26-4-17 4-25 16-12 12-10 38 7 25 25 40-4 8-11 13-27 23-58 41l-45-102c23-3 56-12 61-38v-2c0-15-5-29-17-37l-18-9h-2c-3-1-7-2-8 1h-2c-14 3-26 10-33 22l-7 10-43-108c24-20 51-37 80-50v3q2 21 16 31 9 8 28 7 11-2 17-9 8-9 8-26-3-22-15-34 30-18 66-30Z"/><path fill="#FF72B8" d="m3741 2555 3 2 10 12q4 0 3 5-6 2-5 13l7 8 7 2 10-5 14 18-9 10-12 10c-1-4-4-9-7-11l-5-1-6 5-1 4 6 7c2 0 2 3 2 5l-4 6-11 6-12-21-4 3-3 5c-4 0-7-1-9-4l-1-7 8-6c-2-7-6-12-11-15l-8-5c1-8 4-15 11-19l1 1c1 4 4 7 8 9l5 1 7-6 2-7-7-10h-2l13-15Z"/><path fill="#FFF" fill-rule="evenodd" d="M1125 2196q23-3 31 10 12 12 10 39-6 8-5 24l6 7c6 3 13 4 20 4h2l12 1h2l20 1 2-1-9-28q21-1 33-11-11-8-11-26l6-8c2-3 5-3 9-3 8 0 13 8 15 16v11c2 3 7 2 9 2l7-4 25-15q11 16 18 37-9 0-14 6-4 4-3 14 2 6 7 10l8 1 7-4 2-3 1 1q6 13 5 34-17 5-29 16l-1 4c6 3 7 10 6 17l-5 7c-3 2-6 2-9 2l-5-3q-4-7-3-18-6-1-7 3l1 4v2c3 10 4 22 4 34h-1c-11-8-25-12-38-13l-3 1c-9 0-17 3-21 11l-6 12 32 18c-8 8-7 24-1 33 1 2 5 9 8 9 10 2 23-1 34-4l4 6 7-6 6-9q26 12 49 28-12 37-32 66l-12-14c-3-4-8-5-12-5v17c0 1-1 4 1 6h-1l-2-1h-2l-11-2h-2l-4-1-1 4c1 5 5 10 10 13l17 6 6-4q13 14 18 38-11 0-15 7l-2 10c1 5 3 10 8 13l5 1q7-2 12-8 6 14 5 35-17 5-29 16h2l24-11-1 9c1 14 9 28 26 26l10-6c6-8 6-18 1-26-3-6-8-7-7-14l7-9c11-8 25-12 39-15l1 4c0 1-1 4 1 6v2c1 16 5 33 14 48l3 1 4-3 8-10c2-2 6-2 10-2l7 7 5 11v2q1 11-4 15-15 0-21 9l-1 5c4 14 11 28 22 39l8 12c3 2 3 6 2 10l-37 29-7-19c-3-5-7-12-13-14-10-3-20 1-27 8l-6 6c-8 14 0 32 11 41l-42 26-26-54c6-3 11-7 15-12l6-14v-2c0-2 1-5-1-6v-2q-2-15-12-22-7-5-17-6-12 1-19 6-15-23-25-51l6-5-1-1-15 8-19-27c8-2 17-5 22-11l1-12-4-8c-4-5-10-5-15-4l-10 7v1l-2 1q-11-20-17-45-15-2-21-12-3-4-2-11 10-6 12-19l-1-4c-19-13-40-23-62-28l-1-6 13-44q9 15 33 16 7-1 11-6l-1-2 1-4-2-10c-11-33-66-29-75 3l-2 9v2c0 12 2 26 8 38h-3l-111-22q-5-28-1-65 2-2 1-6v-2l1-18v-2q10 8 31 6 13-3 20-11 11-8 9-28-4-12-12-19-10-10-30-10h-2c-4 1-9 2-11-1l-1-3 2-8c0-9 0-17 3-24v-2q2-19 7-35 7-1 11 3l25 8h2c6 1 15 1 19-6l4-13v-2l-1-22c1-12 5-22 15-29l11-5Zm115 368c2 0 5 0 7 2l10 9c0 4-2 5-5 6-6 3-11 4-17 4v-1c-1-7-1-15 5-20Z"/><path fill="#FFF" d="M3627 2664c5 0 11 1 14 6l3 10q-4 6-4 18 3 5 14 2 12-5 30-5v2l-1 3q5 14 4 36-1 2-4 1-3-3-8-2l-8 6c-4 4-4 10-3 16l5 6 9 1 7-3v3q-2 17-7 31-23-2-36 7l2 11c-2 9-8 14-17 13l-5-3-1-9 4-10q-1-4-8-3-12 5-29 4-6-14-7-32 1-3 5-2l10 3c10-1 15-9 14-19l-5-10q-4-4-13-3-3 4-9 3-4-6-2-16-2-21 4-34 11 5 30 4l3-1 1-5c-5-8-7-22 3-27l5-2Zm-2995 96 1 1q1 20 11 31 10 1 12-7 4-5 14-4l8 7c3 3 2 8 2 12l-4 6c-7 5-16 6-24 7l-1 4q8 19 21 35-16 11-36 19-2-10-8-15l-9-2c-6 1-12 3-15 8l-1 5 7 10 2 2q-15 6-35 6-6-18-17-29l-3-1c-8 12-30 7-28-7l5-6q11 2 16-2 1-9-5-11-8-10-12-23l20-14q1-5 9-4 0 13 7 19 4 4 14 3l9-6q4-4 3-12-1-7-6-9-3-1-3-5 21-11 46-18Z"/><path fill="#FF72B8" d="m3541 2797 2 1c0 4 0 9 2 14v2c0 7 0 14 3 21v2c-1 2-2 6 1 8l-2 1c-3-4-10-2-13-1-6 1-12 3-15 9-6 12 5 27 19 25l16-8 1 14 1 5-1 2c3 1 1 6 0 8 0 4-1 10 3 13v9c-13 5-26 8-38 10l-1-7v-2c-1-10-10-14-18-13l-6 4c-4 3-5 8-5 14l3 10-4 1h-2l-9 2h-2q-5-1-6 1-2-2-6-1-2 2-3 0l1-12q0-9-5-12-10 5-25 4l-8-5-3-10c1-6 7-14 13-15 5-1 14 3 17-3l1-3-1-3q-4-24-11-43 22-6 40-17v2c-2 3-2 8-2 13l1 3 5 7c4 3 10 3 15 2l10-8c3-4 4-9 4-13l-7-15c10-8 22-13 35-16Z"/><path fill="#12BE88" d="M1440 2809q10 0 13 7 4 4 3 14-1 7 4 8 9 0 14-5 10-9 24-14 13 13 17 37-8 0-13 5-5 4-3 15 2 6 7 10l8 1 8-6 1-2q5 15 6 35-18 5-30 17l-1 2c7 4 7 13 6 20l-5 6-9 1-4-2c-2-4-2-8-2-11l1-2-3-6q-15 10-33 17-14-9-17-28 15-1 21-10l2-7c-1-6-3-12-8-15l-9-3q-11 2-16 9-10-21-17-45 22-1 33-12-11-8-11-25l4-7 9-4Z"/><path fill="#FF72B8" d="m1594 2870 2 1 2-1v2q-4 5-3 16 2 9 9 13 4 5 16 4 6-2 10-7 8-9 6-28 7-2 9 1l4-1c3 5 11 3 16 2l2-1 13 3-6 21v2c0 11 11 16 20 11l3-1c15-2 27 8 27 23l-1 3-6 10-14 6h-2l-4-1h-2c-4-2-9-2-13-1l-5 4-1 4v2c-1 13-1 26 2 40v2c0 1-1 4 1 6l-1 2 2 9v2l-5 2-18-31-29 17c-1-5-4-10-8-13l-6-2c-1-13-16-15-24-8-2 2-1 9-2 12s-2 5-5 7c-4 5-5 11-5 18l1 3c-3 4-9 4-14 4l5 14c-7 3-15 4-23 5h-4c-5 0-9 0-12 2l-2-4 1-3c0-8 0-15 2-22l-1-4c5-4 3-12 2-16v-2c-1-4-3-11 1-13v-2l1-2c7 3 16 5 25 5l3-1c5 0 10-2 13-6l5-10-1-2c4-3 0-12-1-14-6-12-15-16-27-14l-17 6-1-2 1-3c-1-3-1-6 1-7v-2c0-5 0-10 2-13v-2c-1-3-1-6 1-7v-2c-1-3-1-6 1-7v-2c-1-3-1-6 1-7v-4c-1-3-1-6 1-7v-2l2-3h2l3-1h2c5 1 13 3 17-2l3 1 15-1c2 1 6 2 8-1Z"/><path fill="#12BE88" d="m714 2878 18 1q-3 17-2 39 1 10 9 15 5 4 16 2 14-8 38-7 13 2 20 11 9 8 7 28-4 13-13 20-12 11-36 9l-4-1q-11 1-16 8-3 2-2 9 8 56 23 105-47 15-90 35l-1-1q5-11 5-27-1-22-14-31-10-6-25-6-21 4-32 19-11 11-10 36 10 12 12 32-35 21-82 31-8-54-12-111l4-1a82 82 0 0 0 50-2c29-14 23-56-2-71-11-7-25-4-36 0-9 3-18 8-25 14l-1-1 1-2c-3-2-2-6-1-8l-1-19-3-64-2-21c29-11 59-19 90-23v4c-4 3-2 9-2 14 1 8 4 16 9 22 9 9 23 16 35 12 16-5 24-22 25-37l-5-25c18-5 36-7 55-8Z"/><path fill="#12BE88" d="m409 2884 5 5 67 81c-15 6-32 16-42 30l-4 9c-7 22 9 43 31 48 14 4 30 0 39-12l8-12 3 1 15-10 49 65q-16 9-44 6-4-4-12-2l-1 8 1 5 2 15 5 54h-1q-5-15-16-24-8-6-20-7-20 1-29 14-6 7-5 22 6 26 25 40-25 26-56 45-10-21-24-37-5-5-14-5-10 4-16 12l-16 18c-8 8-19 9-29 8l-10-4 1-7c-4 0-10 1-12-3l-5-13v-2c0-2-1-5 1-6v-2l1-3c-2-1-1-2 1-3l8-1c2 5 7 6 12 6 4 0 5-4 4-7l2-25-2-1 10-9c5-6 1-13-2-18-7-9-15-18-24-25l-54-47c20-26 39-53 56-81l1 1c4 14 12 31 26 39l8 3c24 4 43-18 46-40v-2q0-27-15-38-15-6-25-16 18-44 51-73Zm2837 9s7 0 6 2l-3 5-1 4c-1 7 0 13 5 17 7 6 20 4 25-3l2-9-2-10 7-1 43 9c-6 9-8 20-8 31l3 3 21-1 6 5 3 10c-1 7-8 16-16 13l-7-4c-4-2-8-3-12-2-3 0-5 6-5 8 0 6 4 9 2 15v20h-3q-27 6-39-3 4-4 3-12l-5-8c-6-5-16-6-21 0-3 3-3 8-2 12l2 4h-3c-12-1-23-5-31-12l2-24c0-4 0-8-2-11l-5-1c-2 3-6 2-8 1l-10-7-1-10 5-6 5-1q3 7 15 6 4-5 1-17-5-4-1-16l3-5 18-1c2 1 6 2 8-1Z"/><path fill="#FFF" d="m3379 2960 2 13v4l1 4v2l1 5v2c0 1-1 4 1 6v2c0 9 0 19 4 28v4q0 15 4 27-1 2-6 1-2-2-6-1h-16l-3 1c-11 0-21 4-27 13l-6 14c0 13 4 28 17 36l14 6 3-1 5 1c12-3 25-9 35-18l-1 2 2 8-1 3 1 3c0 5 0 11 2 17v2c-1 6 0 14 2 21l-1 2q4 2 1 11 2 1 1 6-3 11 2 15v2l-1 3 2 7c-25 11-52 18-78 22l-1-5c2-2 1-5 1-6l-1-3 1-2c-3-13-10-24-23-27-14-5-28 2-34 16-3 7-3 14-2 22l4 17-2 1h-2l-15 3h-2l-30 4h-14l1-3 1-26c0-7-2-14-6-18l-9-3-3 1c-11 5-22 6-33 7-22 1-38-22-27-42 7-14 22-19 38-19l2 1 5-1h2l9-4q3-3 2-10-8-50-23-91 41-16 79-35v5c-3 6-3 13-3 20l1 9c4 18 21 26 39 22 15-3 27-18 30-33 2-10 0-20-6-28h3q-5-17 2-22 28-14 62-23Z"/><path fill="#FF72B8" d="M3521 2961c5-1 11-1 14 5l1 7-6 7-6 5c-1 4 3 4 7 5 9 3 18 7 26 13l-10 30-3 1-7-7c-8-5-17-5-23 3-3 4-4 9-3 15l6 7q10-1 14 5-12 22-27 41l-15-13q-5-6-14-6-3 15-12 23l-7 2c-4-1-7-2-9-4-9-6-7-16 0-23 4-4 10-4 9-11l-2-4q-20-6-36-15 6-22 19-37 4 0 4 3l2 2c2 3 7 3 11 2l8-5c4-4 6-11 4-15-2-5-11-7-15-7l23-25 2-1c8 8 19 12 31 14l3-2c0-5 2-10 7-13l4-2Z"/><path fill="#12BE88" d="M3103 2993c7-1 11 5 10 12l-4 11q1 3 7 2 13-5 31-6 6 13 8 32-1 3-5 2-4-3-11-2l-10 6q-3 4-3 12 1 7 7 11 4 4 14 2 1-4 8-3 3 5 1 15v35h-5c-8-3-16-4-24-3l-6 3c4 6 4 15 4 23l-4 7c-4 4-9 4-13 3l-9-5c-4-5-3-11-2-16l3-10-1-3q-4-2-10-1-15 5-32 7-6-17-7-37l3-5 12 1 4-3c4-6 6-16 1-22-3-6-12-4-17-1l-1 1-1-1q0-21 8-34 21 1 33-7-3-6-2-14l5-8 8-4Z"/><path fill="#FFF" d="m2375 3005 20 20 41 50q-16 4-26 15-9 8-9 27 2 14 12 22 8 9 29 6 20-6 33-20 8 8 9 23 4 25 13 46-16 5-26 16-4 3-3 13 6 13 17 22 13 10 14 34-2 13-11 20-8 8-25 7-18-4-28-15l-3-6-1 5q5 27 16 49 8 1 9-4l6-8 8-3q7 2 10 8 5 6 5 19-1 6-5 9-14 0-20 9 0 14 8 21 4-5 15-5l7 5 7 7 6 2 10-9q11-15 17-33 3-12 11-19 26 5 46 17-16 10-18 34 3 9 11 14 7 6 22 6 11-2 16-9 7-8 10-21l43 23c0 3-1 6-4 7l-13 20h4q10-4 27-3 2 1 1 6-3 2-1 9l5 5c4 4 11 4 17 3l5-3c2-4 2-8 1-11l-3-5 3-2q21-1 32 9-3 23 7 34 4-3 12-2l9 6c3 2 3 7 3 11l-4 5-8 1q-4-4-11-4-4 2-2 9 5 11 4 29-14 5-32 6-3-1-2-4l3-10c-1-11-8-16-18-15l-10 5c-4 3-5 9-4 14l4 9c-1 2-4 2-6 1h-18c-2-3-6-2-8-1l-19-1c4-10 5-20 4-30l-2-5c-8 3-16 4-23 3l-8-5c-3-4-3-9-2-12l7-9c3-3 8-2 12-2l14 4c4-2 4-7 3-10l-4-23-7 10q-9-8-27-6-13 3-20 13-7 8-7 24 4 15 16 22l3 2q-13 26-31 47-37-14-64-37l1-2c7-3 17-10 20-18 5-14-7-29-22-26-5 1-10 4-13 8-2 2-2 6-3 8l-6 9-6 1c-16-5-30-14-40-27l14-12c-1-5-2-10-5-14l-6-7c-13-11-31-3-39 10-5 9-3 20 2 29 2 4 6 8 10 12l-41 27-28-53c15-7 25-24 19-40-5-14-16-23-31-23l-5 3c-9 7-13 18-14 30l2 2c12 1 22 17 10 26l-6 1-8-5-5-8q-4 0-5 3-5 16-14 29-18-4-31-12-1-5 3-6l6-5c3-4 2-9 2-12l-7-10c-4-3-10-3-14-2l-7 5-5 14q-23-13-41-29 18-7 20-29-15-2-22-12l-1-3-7-1c-6 3-3 11-2 15 4 9 6 19 7 29l-1-1c-13 5-26 7-39 7l-1-5c2-2 1-5 1-6l-4-7c-4-4-10-4-15-4l-10 6-1 7 4 9h-3q-19 0-31-5 1-23-9-35-6 3-16 2l-6-3c-3-3-3-8-3-12l4-5 9-1q2 3 9 3 3-1 2-7-5-14-7-30 11-10 33-9v7q-3 2-1 10 2 6 8 9 3 3 10 2t11-6q4-4 3-12-4-3-4-11 22-4 49-3l1 4c-3 8-4 17-3 26l5 6c6-5 15-6 23-5l6 5 3 8 3 3 6 7 5 1q5-4 7-11 4-15 12-26 21 6 36 20l-2 4-5 4-1 9c3 8 10 14 20 13l4-3 1-5-13-27c19-16 41-28 65-37v3c-1 10 1 21 10 28 5 4 11 4 17 3l10-8 3-8v-2q-1-18-12-25 1-8 7-12 16-11 38-16-3-11-10-17-3-3-9-3-50 31-89 72-35-34-74-64l1-2c16-2 34-9 43-23 11-17-2-43-18-52-10-5-22-6-32-5l-6 2-11-22a56 56 0 0 1-50 13c-15-5-23-17-21-32l74-48c2 11 7 22 13 32 9 13 21 24 39 22 25-3 43-34 33-57l-4-7c-7-11-21-19-33-24l1-2 99-58Z"/><path fill="#12BE88" d="M2567 3013c4-1 8-1 8 4v5l-4 9c-1 5 6 12 11 13 12 3 22-5 21-17l-2-8 9-1 41 9c-6 8-8 19-8 30l3 4 17-2c8 1 14 7 13 17l-5 9q-4 3-10 3-7-7-20-6-7 7-3 25l1 3c-4 2-2 9-1 13l1 2h-3l-3-1c-2 3-6 2-8 1h-21l-7-2c2-5 2-10 2-14l-6-8c-4-3-9-3-13-3l-8 5-1 11 1 4-1-1c-11-2-22-5-31-10l1-29-3-8-11 1-10-6c-2-4-2-8-2-11l5-6 6-1q3 7 14 6 3-3 1-11l1-27 17-1c2 1 6 2 8-1Z"/><path fill="#FFF" fill-rule="evenodd" d="m1759 2977 41 23-2 3-14 12c-11 10-6 28 6 35l9 4c12 4 24-1 31-11l7-14 31 23c3-4 4-10 5-15l-1-3c-7-1-11-3-15-8-4-6-2-14 4-18l6-1 6 5 5 6 4 1 15-33 10 2 21 9q1 8-6 9-6 4-4 15l5 6c3 4 10 5 16 4l6-3q5-7 7-17 22 12 41 27-13 10-19 28l3 3c11 1 25 7 22 21l-6 8c-9 8-21-3-26-9l-1-3-3-1-6 5q-3 21-14 34-23-5-37-18 9-3 7-16l-6-10c-4-3-8-4-12-4l-6 4-3 12-22-18-26 29c-7-7-16-9-25-10l-3 1q-17 2-24 15-5 7-5 20 3 16 15 24-17 23-37 42-34-19-59-46 14-4 22-14 5-5 4-16l-6-11c-9-9-25-4-31 6l-7 11-6 1-11-5-6 8c-2 2-6 2-8 2l-7-5-1-8 1-4-2-4c-4 0-7 0-9 3-7 6-16 10-24 13l-13-19q-6-2-5-9 15-1 21-9l2-9q-2-10-8-14-4-3-10-2-9 3-14 9-9-14-13-31v-2l-4-13q20-2 32-11 1-11-7-12-4-5-3-15l5-7q4-3 11-3 5 1 8 5 6 9 8 24 9 1 13-4l25-15 18 32c3-6 11-6 18-5l6 6 6 8c1 2 5 2 8 2l15-14 27-40 4-1Zm-93 51 2 1c-3 2-3 6-3 10l5 6 12 5c-3 5-9 7-14 7l-7-5c-3-5-3-11-2-16l5-7 2-1Z"/><path fill="#12BE88" d="M2142 3033q5 0 5 4 25 34 46 74l-3 1q-20 2-29 14-10 10-8 32 3 11 13 17 8 6 24 6 21-3 34-15 17 30 29 67-29 3-47 18-4 3-3 13 5 13 14 23 8 10 9 28l-1 3c-1 16-15 26-30 27l-5-1c-3 0-7 0-9-2l3-19c-1-3-5-3-7-2h-19c-1-11-5-22-13-29l-4-2q-57 22-101 57-30-39-63-74 33-2 49-20 5-7 5-18-2-22-15-32l-16-8 2-7q-24-14-52-24-4 9-10 16-8 9-24 8-9-1-13-5l-12-17q-7-5-4-18 24-16 54-26 1 4 3 1l3-4 24-10q2-6 12-5 4 35 25 54 6 5 17 6 24-2 35-18 9-10 8-29-5-18-16-28l-17-13 107-43Z"/><path fill="#FF72B8" d="M2648 3106c8 5 20 3 30 1h2l80 1 3-1 1 1c8 22 12 46 14 70v4l2 11v6c-21-8-45 1-53 22 0 1-3 7-1 8v8c3 19 23 28 42 27l13-3h4l2 1 1 4v2c2 19 2 38 2 57 0 6 2 12-5 10l-3-1c-6 0-12-1-16-3l-2 1-11-2c-4 0-7 0-10 2-10 3-13 11-12 22l3 15-1 3c4 5 4 14 2 21s-5 13-11 18l-7 4c-21 8-40-4-47-24l-2-7v-2l1-28-4-8-6-3-3 1h-2c-5-1-11-2-15 1h-2c-5 0-9 0-12 2h-2c-13 0-27 1-38 6l-43-16-17-50c-5-6-6-13-6-20l4-1c5 4 13 5 20 6h2c3 1 8 2 11-1h2q15-1 21-11 7-10 7-26-4-22-18-33-11-11-33-10-14 8-32 10-20-36-27-85h2l2-1q1 2 6 1 1-2 6-1 10 3 13-1l5 1c1-3 5-2 8-1h18c2 1 5 1 7-1h2c9-1 19-1 27 5v-3l-1-2h2l5-1h2l8 1-4 23v2c-1 3-3 10 1 13v2c1 17 11 30 29 34h2c6 0 14 0 20-2 21-7 30-27 25-48-2-11-6-22-13-31Zm-812 10 53 24c-4 9-4 22 1 32 10 16 36 23 50 8l10-16q28 10 52 24-10 37-27 68l-3-1-9-11q-7-6-19-5-8 3-12 9-4 4-3 13 3 10 11 15 11 1 19 7 3 4 1 14-7 20-19 35-23-21-51-35l-3 2q2 15-4 23-4 4-13 2-11-3-17-11l-2-9q2-7 7-10 4-3 3-11l-2-4q-15-10-35-14-19 0-29-9 0-29 9-49 10 11 31 13 8-2 13-7 8-9 7-25-2-14-12-19-9-6-23-6l16-47Z"/><path fill="#FFF" d="M291 3158c4-1 11-1 13 5l1 4q-1 6-5 9-4 1-3 8 22-1 36 7l-2 24q1 6-1 8-7-6-19-6-7 1-10 6-5 4-3 16 1 6 7 8 5 4 16 3-2 29-15 47-10-12-31-12-5 2-3 10 1 12-5 17-4 4-13 2l-9-6q-3-4-1-12 7-7 9-17-4-6-13-6-18 1-30-3 1-24 9-41 4 5 15 4l8-6c4-5 4-11 3-16l-2-4c-4-3-9-2-12-2l-2 1q-3-1-1-2 6-17 16-29 13 6 33 5l3-2c-1-7 1-16 8-19l3-1Zm351 25c14 0 18 13 20 26l5 1q18-10 32-24 15 13 22 36-9 0-13 7-3 3-1 12 2 6 7 10l6 2c4-1 9-4 11-8l1-2q7 15 10 34-15 7-27 19l-1 5c13 5 10 29-5 27l-7-5c1-5 1-10-2-14l-2-1-30 21-15-17q-7-1-6-9 13-2 19-11l1-10-5-10c-3-4-9-4-13-4l-10 6-3 5-4-2q-11-20-20-42 17-4 29-12l1-6c-11-5-20-26-5-32l5-2Z"/><path fill="#FFF" fill-rule="evenodd" d="M2830 2919c13 3 26 6 40 7h2c2-1 5-1 7 1h2l8 1h2q22-2 35 5-19 15-23 46 2 13 12 20 10 10 29 11 26-3 38-20 7-9 8-23v-2q-2-14 4-20 11 4 15-1l8 2h2c21 2 42 6 62 13l-44 102q-19-20-53-24-18 2-26 15-7 8-8 22v2c0 1-1 4 1 6v2q1 15 10 22 15 15 48 12 1-2 7-1l-2 3-21 45h3l72-20q23 38 40 83-27 0-38 17-8 9-6 29 3 10 12 16 10 8 29 7l28-11q14 31 21 70-33 0-51 16-3 3-2 10 4 14 11 25 7 9 6 28-2 11-9 17-9 10-28 8-14-3-21-11-9-10-12-24 0-16-8-23-3-3-9-2-54 20-101 46-13-24-29-45-4 2-2 9 6 23 19 40 9 4 8 20l-39 27c-1-12-5-25-15-33l-11-4c-10 1-19 6-25 14l-5 11v2q1 19 12 29-24 9-43 22-6-6-7-16l-16-39q11-4 17-12 7-8 7-23-2-18-14-25-7-5-17-5-10 1-16 5-13-24-21-53 29-20 68-30l-1 2c-1 2-1 5 1 7l-1 5 1 3c1 6 3 12 9 16 4 4 10 4 16 3l9-6q4-6 5-14-1-10-6-15-4-3-3-11 15-18 47-19l1 4q1 27 8 49 28 0 41-15 8-9 5-28-4-17-15-25-13-13-40-11-15 4-23 13-3 8-15 7-28-32-47-73l93-30-11-4q13-12 14-34-3-17-13-26-8-7-22-7-17 4-26 16t-12 30q-23-6-41-16-2-24-8-43 5-6 4-18-2-7-7-10-32-5-51-22l-6-12v-2q-1-24 14-32 9-8 30-6l3 1c6 1 12 3 17 7 5 5 10 7 18 7l7-4c15-35 26-71 34-108Zm146 280c7 8 9 21 7 31-7 24-38 42-61 27-7-5-12-13-15-21-4-9-6-20-6-29l2-1c19 7 38 12 59 16l2-1 1 1 11-23Z"/><path fill="#FF72B8" d="M489 3249c24 5 48 13 69 27l-10 9c-7 4-8 14-7 22l6 9 9 5h2c10-1 19-6 22-16 1-5 0-12 6-15l10-1q22 7 38 21-21 21-36 49l4 4q16-2 23 6 3 3 1 12-3 9-10 15-5 3-11 3-6-10-20-10l-4 3q-16 26-22 63-30 1-50-7 9-11 13-26v-2l-1-9c-5-13-22-18-35-14l-6 2c-10 6-14 18-15 30l1 2-1-1-48-14 25-55c7 4 17 4 25 2 20-7 29-30 18-48l-6-7-13-6c5-19 12-37 23-53Z"/><path fill="#FFF" d="M378 3277c-1 11 0 24 9 33l3 1c4-9 14-11 24-10l5 4c4 3 5 9 4 14l-6 8q-6 3-15 3-7-1-9 3 0 9 6 14l12 25q-16 11-37 16-1-9-5-14-5-4-15-3-7 2-11 7l-1 7 8 10-3 1h-2q-13 4-29 3-5-18-16-30l-4-1-10 6-3-1c-5 0-9 0-11-4l-3-7c0-4 2-7 5-8l7-2c1 3 5 2 8 1l2-1c0-4 0-9-4-11l-12-23 22-13c1-4 4-4 8-4l2 4-1 5 6 11c7 8 20 3 25-5l2-5q-1-13-9-18 22-10 48-16Zm305 94 1 1c4 9 9 18 17 25l5 1c3-6 7-12 13-16l4-2h2l3 1h2l7 6 3 8c0 5-3 10-7 12l-15 8-1 3 7 8 24 21-7 6-18 20-5 2-7-10c-4-2-9-2-12-1l-10 7c-3 1-3 5-3 9l5 6 7 5-30 16-13-14c-4-5-9-8-14-10l-4 3-4 6c-3 3-8 3-11 3l-9-4c-2-3-2-6-2-9l4-5c5-1 9-3 13-6l-3-6-24-20 22-27 3 3c2 10 10 16 21 14l8-6c4-4 4-10 3-14l-5-8-10-5 40-31Z"/><path fill="#FF72B8" d="M348 3395q19-1 33 4 0 21 11 33 5-4 15-3 6 2 9 7l1 10-2 3-7 2-11-3-3 2-1 3c4 10 7 21 9 33l-30 10c-3 0-3-3-3-4l2-9c-1-7-5-13-12-14-11-3-22 5-21 17l5 12c-5 5-13 4-19 3l-21 1c-3-1-7-2-8 1l-1-9c5-5 3-13 1-18l-4-8c-8 5-17 6-25 5l-7-5c-3-4-2-9-1-13l4-6c4-4 12-4 18-3l8 2c4-1 4-7 3-10l-10-33c11-1 23-4 33-9l2 3 6 1-1 7 5 6c3 4 9 4 15 4l9-5 1-8c-3-2-5-5-3-9Z"/><path fill="#FFF" d="m495 3461 2 2c11 21 19 45 23 69l-3-1-15-1q-11 1-16 8-4 4-5 13 1 10 9 14 5 6 17 4 5-8 19-7l6 6c5 8 8 17 9 27v2c0 1-1 4 1 6l-1 2c2 1 2 4 1 7l-3-1c-13-1-25 0-36 3h-2c-3-1-6-1-7 1h-2q-10-2-12 4 1 9 8 12 4 3 3 12l-3 5c-7 6-16 6-24 5l-8-4q1-16-6-24-4-2-10-1-23 5-40 16-5 7-19 6-16-18-25-42l8-2h2c10 0 21-4 27-14 8-14-6-35-21-38l-7-1-3 1q-14 1-20 9-9-24-20-45l4-2 38-11q6-4 17-4 2 13 12 19 7 6 20 7 17-2 25-12 7-8 6-22l-1-3-2-8c17-8 35-13 54-17Zm258 54c3 0 7 0 9 4l1 8q-6 2-5 12 3 4 12 2 11-3 26-2 3 15 4 33h-6c-3-3-8-3-11-3l-10 6c-7 7-4 20 5 25l8 2 11-3v7c-2 1-1 4-1 6l-3 24q1 8-2 12-13-5-29-6l-5 3-1 5c3 5 3 12 2 18l-4 6c-9 6-22 0-23-10-1-4 0-5 2-8l2-6c1-4 2-9-2-11l-10-1c-10 1-20 4-30 4l-1-1c3-2 1-8 0-11-2-8-2-17-1-25l3-5 10 3 7-4c5-4 6-12 5-17l-3-7c-3-2-6-2-9-2l-7 3-1-3q3-17 10-30 27 6 36-5-2-5-1-13l5-7 7-3Z"/><path fill="#12BE88" d="m684 3530 2 2 3 58q-19 2-28 15-7 8-5 26 3 10 10 16 9 9 28 8 5 24 3 56-30 11-73 8l-1-2q7-9 5-25-2-8-7-12t-15-3q-9 2-13 10-4 4-3 14 4 5 3 16-10 12-36 8l-5-1-12-1q8-27 9-60-1-4-6-3-5 8-18 7l-7-4c-8-9-4-27 6-33l9-1c3 3 8 3 12 2l5-4 1-14c-2-18-5-36-10-52l4-5c14-6 29-10 45-13v5c-5 3-2 12-1 17 0 6 2 11 6 15 7 7 17 7 26 5 14-4 21-16 20-30l-5-16c16 0 33-2 48-9Z"/></svg>